# xmcd CD database file
#
# Track frame offsets:
#	150
#	11483
#	21555
#	35550
#	47000
#	58980
#	73335
#	85283
#	96088
#	106755
#	119988
#	134828
#	150043
#
# Disc length: 2207 seconds
#
# Revision: 0
# Processed by: cddbd v1.5PL3 Copyright (c) Steve Scherf et al.
# Submitted via: CDex 1.51
#
DISCID=b9089d0d
DTITLE=Sonny Rollins - Sonny Rollins
DYEAR=1900
DGENRE=Jazz
TTITLE0=I Know
TTITLE1=Scoop's
TTITLE2=With A Song In My Heart
TTITLE3=Shadrack
TTITLE4=Time On My Hands
TTITLE5=Newk's Fadeaway
TTITLE6=On A Slow Boat To China
TTITLE7=This Is Love Of Mine
TTITLE8=Mambo Bounce
TTITLE9=The Stopper
TTITLE10=In A Sentimental Mood
TTITLE11=Almost Like Being In Love
TTITLE12=No Moe
EXTD=
EXTT0=
EXTT1=
EXTT2=
EXTT3=
EXTT4=
EXTT5=
EXTT6=
EXTT7=
EXTT8=
EXTT9=
EXTT10=
EXTT11=
EXTT12=
PLAYORDER=
